<svg width="36" height="36" fill="none" xmlns="http://www.w3.org/2000/svg"><g clip-path="url(#clip0_1053_10138)"><path d="M35.954 19.284c.03-.424.046-.852.046-1.284 0-9.941-8.059-18-18-18S0 8.059 0 18c0 8.28 5.592 15.254 13.205 17.353l22.749-16.069z" fill="#C30B15"/><path d="M35.954 19.283L22.148 5.477 8.374 30.52l4.832 4.832c1.526.42 3.134.646 4.794.646 9.51 0 17.295-7.374 17.954-16.715z" fill="#85080E"/><path d="M19.57 23.477l-1.59-18H8.374V21.91l11.196 1.566z" fill="#fff"/><path d="M27.626 21.911V10.955L23.713 9.39l-1.565-3.913H17.98l.024 18 9.622-1.566z" fill="#E8E6E6"/><path d="M22.148 10.955V5.477l5.478 5.478h-5.479z" fill="#fff"/><path d="M27.626 21.914H8.374v8.609h19.252v-8.609z" fill="#FC0F1A"/><path d="M14.405 24.355c.953 0 1.5.469 1.5 1.299 0 .872-.547 1.378-1.5 1.378h-.676v1.048h-.947v-3.724h1.623zm-.676 1.932h.628c.415 0 .655-.207.655-.601 0-.389-.24-.586-.655-.586h-.628v1.187zm4.407-1.932c1.17 0 1.98.756 1.98 1.863 0 1.101-.82 1.862-2.017 1.862h-1.565v-3.724h1.602zm-.655 2.97h.676c.58 0 .995-.447.995-1.102 0-.66-.436-1.112-1.037-1.112h-.634v2.214zm4.215-2.225v.862h1.671v.745h-1.67v1.373h-.948v-3.724h2.762v.744h-1.815z" fill="#fff"/></g><defs><clipPath id="clip0_1053_10138"><path fill="#fff" d="M0 0h36v36H0z"/></clipPath></defs></svg>